<?xml version="1.0" encoding="UTF-8"?>
<svg id="Layer_1" data-name="Layer 1" xmlns="http://www.w3.org/2000/svg" viewBox="0 0 160 160">
  <path d="M38.87,73.66c-.38.4-1.04.91-1.58.74-3.34-1.03-6.53-2.22-9.73-3.52-.88-.36-1.45-1.14-1.6-1.89-.19-.99.27-1.75.95-2.4,1.27-1.19,2.64-.83,4.24.02l3.23,1.73,3.97,2.26c1.09.62,1.44,2.1.52,3.06Z"/>
  <path d="M26.96,83.13c-1.3.22-2.58-.35-2.94-1.71-.23-.87,0-1.79.54-2.39.57-.64,1.39-1.01,2.32-.95.68.04,1.28-.1,1.94-.12l3.28-.1c1.1-.03,2.25-.14,3.33-.02s1.62.99,1.58,2c-.03.73-.2,1.24-.93,1.56-2.99.74-6.02,1.2-9.11,1.73Z"/>
  <path d="M43.14,67.09c-.62.34-1.63.51-2.14-.08-1.85-2.14-3.6-4.29-5.2-6.63-.76-1.1-.03-2.48.99-3.01,1.14-.59,2.33-.04,3.04,1.08l3.87,6.18c.55.88.45,1.91-.55,2.47Z"/>
  <g>
    <path d="M77.05,82.78l-1.87.11c-4.5.45-8.81,1.47-13.1,2.86-2.25.73-4.35,1.4-6.52,2.31-.36.15-.95.23-1.08-.2,1.34-1.49,2.95-2.49,4.7-3.41,4.82-2.55,10.11-3.83,15.57-4.21l5.34.02c4.18.3,8.23,1.12,11.92,3.09.61.33,1.25.62,1.45,1.38-3.54-.71-6.88-1.52-10.42-1.81l-1.63-.13h-4.37Z"/>
    <g>
      <path d="M81.44,108.8l-4.96.03h-1.15s-21.51-.03-21.51-.03l-.69,1.61c-1.22,2.84-4.79,3.81-7.42,2.06-2.4,2.23-5.02,2.43-7.63.25-2.03,1.83-4.12,1.47-6.16-.16-.4-.32-.96.17-1.33.27-2.6.71-5.4-1.26-6.01-4.02l-9.7-.02c-.78,0-1.22-.73-1.16-1.33.09-.8.62-1.23,1.47-1.23h9.34c.22-1.5.92-2.78,2-3.67,1.26-1.02,2.65-1.69,4.29-1.62,1.39-1.24,3.02-1.99,4.91-2.38-.71-1.38-1.08-2.95-.38-4.32,1.15-2.26,3.13-3.77,5.4-4.86l.05-1.53c.24-1.45,1.03-2.56,1.97-3.63l1.76-1.53c-1.1-4.66.76-8.81,3.93-12.31l1.82-2.01,2.99-2.63.37-1.38c2.79-8.45,6.39-15.72,12.34-22.37l3.59-3.6c.37-.37.78-.72,1.19-1.05,2.93-2.39,5.99-4.47,9.4-6.11,5.61-2.71,12.01-4.31,18.24-3.73,7.37.68,14.19,3.69,19.74,8.59l3.9,3.92c2.07,2.08,3.51,4.5,4.95,7.07,2.41,4.3,4.06,8.85,5.2,13.65l.43,2.18c1.64-.57,3.22-.37,4.83.09.77.22,1.36.88.96,1.73l1.69.73c.96.42,1.59,1.17,2.08,2.09.37.68.27,1.45-.48,1.96,1.44,1.64,1.97,4.84,1.04,6.67-.49.96-1.19,1.65-2.45,1.58.28,2.13-1.04,3.73-3.02,4.03-.62.09-1.12.05-1.75-.24-.76,2.09-2.77,2.73-4.75,2.05-1.19-.4-2.09-1.12-3.14-1.96-.66,1.07-1.85,1.45-2.89.76-1.69-1.12-2.78-2.97-3.1-5.04-1.41-.16-2.02-1.32-2.01-2.66,0-1.21.14-2.3.86-3.33-.37-.27-.78-.48-.91-.9-.61-2.07,1.51-4.11,3.55-5.18-1.13-1.88-2.66-3.22-4.42-4.36-2.15-1.39-5.36-2.1-7.43-.68-.74.51-1.48.83-2.41,1.21.82,1.16,1.18,2.42,1.59,3.75.77,2.5.98,6.12-.58,8.26,2.3,2.53,4.2,5.35,5.26,8.62l.71,3.34c.27,1.29.28,2.51-.11,3.91,4.11,1.57,7.84,4.86,5.79,9.2,2.23.34,4.14,1.06,5.79,2.41,3.38-.14,6.15,2.01,6.88,5.28h10.11c.74-.02,1.38.37,1.46,1.04s-.35,1.47-1.2,1.48l-10.39.05c-.38,1.62-1.37,3.03-2.89,3.75-1.41.67-2.93.55-4.25-.34-1.65,2.25-4.33,2.28-6.56.65-2.34,2.24-5.53,2.06-7.48-.45-1.45.91-3.13,1.28-4.67.68-1.82-.71-3.08-2.29-3.46-4.28h-23.44ZM96.27,81.24c-.26-.17-.6-.42-.39-.72.57-.1,1.24,0,1.84.16,2.3.65,4.39,1.56,6.58,2.55,2.81,1.27,5.33,2.88,8.06,4.5.35-4.95-3.8-11.11-7.18-14.54l-8.22-8.37c-.68-.69-1.05-1.76-.66-2.03.11-.08.47-.18.65-.07,3.05,1.8,5.73,3.99,8.39,6.3l1.76,1.7c.36-.66.24-1.37.15-2.13-.11-.98-.18-1.9-.56-2.83l-1.07-2.61c-.84-1.42-1.68-2.71-2.77-3.97-2.47-2.83-5.34-5.11-8.43-7.19-.28-.19-.41-.64-.28-.81.75-1.06,4.01.71,5.65,1.79,1.03.67,1.82,1.43,2.84,2.28-1.43-3.63-2.98-6.94-3.95-10.59-.13-.49.21-.93.57-.99s.78.14,1,.56l4.95,9.1c.93,1.72,1.84,3.33,2.51,5.11,2.04-.52,2.73-4.02,2.75-6.03l.04-4.42c.01-1.49-.62-3.76.58-3.52.22.04.36.15.48.43l.74,1.83c.47,1.17,1.03,4.1,1.16,5.6.11,1.3.24,2.5-.12,3.82l1.51.13c1.34-.12,2.49.09,3.72.65,3.61,1.63,5.96,4.18,7.92,7.6.95-.6,1.89-.86,2.91-1.18-.95-4.65-2.46-8.99-4.45-13.28-1.49-3.2-3.36-6.07-5.7-8.7l-3.67-3.66c-4.74-4.03-10.54-6.71-16.77-7.22h-5.04c-8.34.74-15.96,4.39-22.13,10s-10.66,13.13-13.38,21.51c4.34-2.53,9.97-5.15,14.66-5.67.41-.04.82-.05,1.14.2-.27.4-.7.55-1.13.76l-5.86,2.79c-4.48,2.36-8.7,4.94-12.57,8.2-3.62,3.04-7.15,6.93-7.01,12.03,3.43-2.34,10.18-5.87,13.79-6.65l1.43-.31c.71-.15,1.41-.08,2.14.01-.56.59-1.11.86-1.74,1.16-5.33,2.56-11.45,5.85-15.84,9.74-1.28,1.14-2.76,2.41-3.07,3.96,1.96-.7,3.75-1.21,5.69-1.51.47-.07.95-.18,1.39.21l-2.9,1.47-1.93.97c-1.86.93-3.64,1.91-5.34,3.13-1.85,1.32-3.25,3.71-1.74,5.4l4.84.1c1.73.23,3.37.64,4.78,1.67,3.51-1.01,6.85-2.22,10.27-3.55l6.93-2.69c4.51-1.75,9.24-2.75,14.07-2.35l1.64.14c3.57.3,6.98,1.15,10.28,2.49l4.46,1.81c3.95,1.61,7.8,3.09,12.01,4.21,1.56-.98,3.23-1.73,5.11-1.78l3.92-.1c1.66-1.4.12-4.13-1.91-5.19-4.98-2.59-9.79-5.31-14.61-8.22l-4.91-3.2ZM131.21,80.45c.67.08,1.17-.61,1.35-1.17.27-.83.16-1.66.71-2.44.65.88,1.3,1.72,2.29,2.01.76.22,1.54-.54,1.53-1.26v-1.88s-.54-2.19-.54-2.19c1.28.53,2.27,2.17,3.06,1.37.19-.19.28-.61.27-.98-.07-2.61-2.78-3.7-2.52-3.98.48-.53,1.48-.42,2.3-1,.1-1.28-2.01-2.37-3.33-2.36-.49,0-.94.06-1.37-.31.46-.39.75-.74.74-1.29h-1.76c-.68,0-1.13.56-1.56.98-.49.47-2.13-.94-4.32,1.46-1.06,1.16-2.09-.61-3.86.46-.61.37-1.23.71-1.52,1.38l1.71.44c-.06.41-.28.57-.5.76-1.07.93-1.79,2.33-1.39,3.74,1.04-.35,1.57-1.22,2.54-1.35-.66,1.93-.86,3.71-.02,5.37.11.21.12.4.36.39.14,0,.26-.05.35-.23l1.3-2.54c.08-.17.29-.32.43-.28s.29.3.25.45c-.15.62.19.93.35,1.42.49,1.49,1.51,2.86,3.17,3.05ZM80.75,107.56c2.83-.32,5.55-1.17,7.67-2.96,1.18-.99,2.2-2.4,2.26-3.96.09-2.39-1.61-4.31-3.69-5.24-2.95-1.32-6-1.81-9.24-1.63l-3.04.34c-1.47.17-2.85.75-4.19,1.37-1.74.82-3.24,2.2-3.45,4.21-.1.92.27,2,.68,2.8,1.61,3.16,6.28,4.79,9.85,5.05,1.04.22,1.98.16,3.15.02ZM66.91,106.2l-1.25-1.45c-1.46-2.52-1.83-4.98-.47-7.67l-5.41,2.06-6.34,2.31c3.05.38,5.61,1.85,6.42,4.8l7.05-.05ZM104.09,101.47c-3.46-1.15-6.59-2.41-9.86-3.69-.6-.23-1.09-.53-1.76-.48.68.73.78,1.68.9,2.65.28,2.38-.78,4.6-2.54,6.28h7.3c.9-3,3.03-4.26,5.97-4.76ZM38.29,106.75c.02.83.39,1.51.58,2.19s.43,1.15.92,1.7c.88.98,2.45,1.28,3.41.28.49-.52.62-1.2.37-1.82-.37-.95-.36-1.85-.39-2.85-.03-1.07.31-2.16,1.48-2.48-.05,2.12.64,4.79,1.95,6.08.67.66,1.7.81,2.49.49,1.3-.53,1.83-2.32,1.53-3.97-.42-2.29-1.82-4.11-3.95-5.04-1.69-.74-4.58-1.15-6.41-.92-3.21.4-5.94.65-8.58,2.99-1.53-.22-2.94.44-3.75,1.65-1.1,1.65-.93,3.71.62,4.96.57.47,1.59.64,2.04-.02.42-.62-.08-1.46-.02-2.06.17-1.65.8-3.06,2.28-3.81-.49,1.89-.63,3.71.2,5.35.58,1.16,1.55,2.02,2.83,1.64.84-.24,1.25-1.03.93-1.83-.71-1.76-.58-4.86,1.41-5.49l.06,2.96ZM121.97,110.2c.07.51.91,1.03,1.39,1.12,1.77.34,3.11-2.2,2.81-4.34-.12-.85-.14-1.67-.48-2.54.28-.23.67-.06.91.16,2.45,2.27,1.14,5,1.75,5.52.82.69,2.23.14,2.81-1.08,1.02-2.19-.31-4.9-2.67-5.49l-1.68-.09-2.26-1.41c-2.29-1.13-4.71-1.47-7.2-1.65-2-.14-4.76.1-6.31.99-2.56,1.46-3.91,4.21-3.17,7.06.3,1.16,1.11,2.01,2.17,2.12,2.9.32,3.8-3.6,4.07-6.61.81.18,1.3.86,1.37,1.7s.18,1.75-.03,2.59-.48,1.66-.02,2.4,1.32.98,2.23.84c2.15-.32,3.06-4.37,2.8-6.84-.08-.23-.1-.34.04-.44.51-.34,1.61.66,1.85,2.07.23,1.33-.09,2.53-.37,3.9ZM56.97,106.22c-.99-1.76-2.72-2.6-4.69-2.52l1.17,2.54h3.53ZM104.93,106.23l1.04-2.52c-2.1-.23-4.33.61-4.88,2.53h3.84Z"/>
      <path d="M81.44,108.8c-.02.11-.14.17-.31.17h-4.34c-.17,0-.29-.06-.31-.14l4.96-.03Z"/>
      <path d="M69.4,100c-.29-.33-.41-.91-.2-1.4.28-.67.96-1.21,1.68-1.37.13,1.13-.5,2.05-1.47,2.77Z"/>
    </g>
  </g>
</svg>